<?xml version="1.0" encoding="UTF-8" standalone="no"?>
<!-- Created with Inkscape (http://www.inkscape.org/) -->

<svg
   xmlns:dc="http://purl.org/dc/elements/1.1/"
   xmlns:cc="http://creativecommons.org/ns#"
   xmlns:rdf="http://www.w3.org/1999/02/22-rdf-syntax-ns#"
   xmlns:svg="http://www.w3.org/2000/svg"
   xmlns="http://www.w3.org/2000/svg"
   xmlns:sodipodi="http://sodipodi.sourceforge.net/DTD/sodipodi-0.dtd"
   xmlns:inkscape="http://www.inkscape.org/namespaces/inkscape"
   width="202.70923mm"
   height="172.87109mm"
   viewBox="0 0 202.70923 172.87109"
   version="1.1"
   id="svg8"
   inkscape:version="0.92.1 r15371"
   sodipodi:docname="logo2.svg">
  <defs
     id="defs2">
    <inkscape:perspective
       sodipodi:type="inkscape:persp3d"
       inkscape:vp_x="0 : 148.5 : 1"
       inkscape:vp_y="0 : 1000 : 0"
       inkscape:vp_z="210 : 148.5 : 1"
       inkscape:persp3d-origin="105 : 99 : 1"
       id="perspective4573" />
  </defs>
  <sodipodi:namedview
     id="base"
     pagecolor="#ffffff"
     bordercolor="#666666"
     borderopacity="1.0"
     inkscape:pageopacity="0.0"
     inkscape:pageshadow="2"
     inkscape:zoom="0.49497475"
     inkscape:cx="106.50971"
     inkscape:cy="398.33056"
     inkscape:document-units="mm"
     inkscape:current-layer="layer1"
     showgrid="false"
     inkscape:window-width="1440"
     inkscape:window-height="838"
     inkscape:window-x="-8"
     inkscape:window-y="-8"
     inkscape:window-maximized="1" />
  <metadata
     id="metadata5">
    <rdf:RDF>
      <cc:Work
         rdf:about="">
        <dc:format>image/svg+xml</dc:format>
        <dc:type
           rdf:resource="http://purl.org/dc/dcmitype/StillImage" />
        <dc:title />
      </cc:Work>
    </rdf:RDF>
  </metadata>
  <g
     inkscape:label="Camada 1"
     inkscape:groupmode="layer"
     id="layer1"
     transform="translate(-3.1481154,-70.53226)">
    <path
       style="fill:#3498db;fill-opacity:1;stroke:none;stroke-width:0.83357602;stroke-opacity:1"
       d="M 97.981152,231.77619 C 94.578523,227.51328 79.35765,221.45983 67.227799,219.54537 53.270957,217.34258 47.053169,216.86776 32.231562,216.8729 l -15.719971,0.007 0.215145,-58.65727 0.215148,-58.657252 2.933347,0.134405 c 1.61334,0.0739 3.216202,0.167174 3.561917,0.207262 0.345715,0.04009 0.628573,24.656035 0.628573,54.702135 v 54.62924 l 1.959652,0.48657 c 1.077806,0.2676 7.649466,0.48015 14.603687,0.47234 17.251917,-0.0194 30.697184,2.0967 45.875007,7.22001 5.151149,1.73876 7.554808,2.96198 15.118333,7.69363 1.49626,0.93605 2.21286,0.7324 5.76282,-1.63763 12.00583,-8.01542 30.15046,-12.00053 59.57631,-13.08476 l 15.08578,-0.55584 0.41905,-55.07728 0.41906,-55.077271 2.93334,1.11e-4 2.93333,1.35e-4 v 58.612325 58.61253 l -15.92387,0.35325 c -15.332,0.34012 -25.85243,1.1802 -35.61918,2.84419 -10.89732,1.85664 -24.99223,7.53539 -29.31364,11.81028 -3.29179,3.25637 -7.25102,3.20303 -9.914248,-0.13356 z m 1.359585,-13.86144 c -0.438903,-3.77348 -9.692164,-7.78837 -29.179593,-12.66072 -5.627679,-1.40708 -21.435668,-2.64848 -29.96385,-2.35307 -5.366204,0.1859 -8.595864,-0.0136 -8.601731,-0.53145 -0.0082,-0.72786 0.0012,-115.323461 0.0099,-116.547406 0.0017,-0.262089 4.246148,-0.347287 9.431882,-0.189326 24.54258,0.747573 45.34892,5.967553 59.505005,14.928842 2.19991,1.39262 2.40965,1.39262 4.60954,0 14.15193,-8.958658 35.64547,-14.340388 59.29547,-14.84688 l 10.05719,-0.215386 v 58.623766 58.62377 l -14.24767,0.41155 c -21.97884,0.63488 -33.91575,3.03293 -47.85453,9.61371 -4.48127,2.1157 -5.51581,2.98808 -5.92117,4.99307 -0.44,2.17627 -0.82386,2.42948 -3.68316,2.42948 -2.859093,0 -3.219613,-0.23773 -3.457145,-2.27995 z m 0.153866,-60.25898 v -49.27366 l -2.304777,-1.56446 C 94.115048,104.73052 86.733684,101.28966 81.056426,99.296977 76.764874,97.790658 73.059254,96.812203 64.713504,94.981653 60.244977,94.001537 49.979568,93.015396 43.76104,92.968877 l -5.028593,-0.03763 v 51.402823 51.40283 l 11.733381,0.53823 c 11.253549,0.51623 18.771847,1.41919 25.981056,3.12036 7.296773,1.72185 9.439674,2.4093 15.085771,4.83961 3.226692,1.38888 6.33813,2.56329 6.914315,2.6098 0.827297,0.0668 1.047633,-10.27781 1.047633,-49.18914 z m 14.345447,46.69747 c 2.48146,-0.96092 5.26605,-2.0519 6.18796,-2.4244 2.59089,-1.04686 15.24216,-3.83956 22.01565,-4.85982 3.35047,-0.50467 10.39048,-0.91758 15.64449,-0.91758 5.6128,0 9.66797,-0.34139 9.83212,-0.82772 0.15365,-0.45525 0.17938,-23.77306 0.0571,-51.81735 l -0.22213,-50.989658 -3.54927,0.01734 c -4.16419,0.02029 -21.16213,2.085474 -26.597,3.231326 -10.51014,2.215894 -22.55352,7.036892 -28.17521,11.278612 l -2.83443,2.13866 v 48.45886 c 0,55.15911 -0.84431,49.99742 7.64065,46.71172 z"
       id="path4597"
       inkscape:connector-curvature="0" />
  </g>
</svg>
