<?xml version="1.0" encoding="UTF-8" standalone="no"?>
<!-- Created with Inkscape (http://www.inkscape.org/) -->

<svg
   xmlns:dc="http://purl.org/dc/elements/1.1/"
   xmlns:cc="http://creativecommons.org/ns#"
   xmlns:rdf="http://www.w3.org/1999/02/22-rdf-syntax-ns#"
   xmlns:svg="http://www.w3.org/2000/svg"
   xmlns="http://www.w3.org/2000/svg"
   xmlns:sodipodi="http://sodipodi.sourceforge.net/DTD/sodipodi-0.dtd"
   xmlns:inkscape="http://www.inkscape.org/namespaces/inkscape"
   width="202.70923mm"
   height="172.87109mm"
   viewBox="0 0 202.70923 172.87109"
   version="1.1"
   id="svg8"
   inkscape:version="0.92.1 r15371"
   sodipodi:docname="logo2.svg">
  <defs
     id="defs2">
    <inkscape:perspective
       sodipodi:type="inkscape:persp3d"
       inkscape:vp_x="0 : 148.5 : 1"
       inkscape:vp_y="0 : 1000 : 0"
       inkscape:vp_z="210 : 148.5 : 1"
       inkscape:persp3d-origin="105 : 99 : 1"
       id="perspective4573" />
  </defs>
  <sodipodi:namedview
     id="base"
     pagecolor="#ffffff"
     bordercolor="#666666"
     borderopacity="1.0"
     inkscape:pageopacity="0.0"
     inkscape:pageshadow="2"
     inkscape:zoom="0.49497475"
     inkscape:cx="448.95142"
     inkscape:cy="398.33056"
     inkscape:document-units="mm"
     inkscape:current-layer="layer1"
     showgrid="false"
     inkscape:window-width="1440"
     inkscape:window-height="838"
     inkscape:window-x="-8"
     inkscape:window-y="-8"
     inkscape:window-maximized="1" />
  <metadata
     id="metadata5">
    <rdf:RDF>
      <cc:Work
         rdf:about="">
        <dc:format>image/svg+xml</dc:format>
        <dc:type
           rdf:resource="http://purl.org/dc/dcmitype/StillImage" />
        <dc:title></dc:title>
      </cc:Work>
    </rdf:RDF>
  </metadata>
  <g
     inkscape:label="Camada 1"
     inkscape:groupmode="layer"
     id="layer1"
     transform="translate(-3.1481154,-70.53226)">
    <path
       style="fill:#ffffff;stroke-width:0.97465199;fill-opacity:1;stroke:#000000;stroke-opacity:1"
       d="M 99.029345,240.45286 C 95.024802,235.50091 77.111415,228.469 62.835838,226.24509 46.41008,223.68624 39.092386,223.13467 21.648891,223.14066 l -18.5007756,0.007 0.2532046,-68.13845 0.2532046,-68.138447 3.452244,0.156119 c 1.8987336,0.08583 3.7851384,0.194213 4.1920094,0.24077 0.406871,0.0465 0.739766,28.641368 0.739766,63.544028 v 63.45937 l 2.306306,0.5652 c 1.268466,0.31085 9.002629,0.55776 17.187027,0.54869 20.303719,-0.0226 36.127405,2.43561 53.990131,8.38703 6.062366,2.01982 8.891232,3.44076 17.792702,8.93722 1.76095,1.08735 2.60433,0.85079 6.78225,-1.90234 14.12961,-9.31101 35.48397,-13.94026 70.11514,-15.19974 l 17.7544,-0.64569 0.49318,-63.97981 0.49318,-63.9798 3.45224,1.33e-4 3.45224,1.46e-4 v 68.086241 68.0865 l -18.74075,0.41036 c -18.04417,0.3951 -30.42562,1.37095 -41.92009,3.30391 -12.82502,2.15674 -29.41325,8.75338 -34.4991,13.71927 -3.87411,3.78271 -8.53371,3.72075 -11.668055,-0.15515 z m 1.600095,-16.10196 c -0.51654,-4.38341 -11.406677,-9.04726 -34.341359,-14.70717 -6.623195,-1.63451 -25.227561,-3.07655 -35.264348,-2.7334 -6.315466,0.21594 -10.116441,-0.0159 -10.123345,-0.61734 -0.0096,-0.84551 0.0016,-133.964031 0.01151,-135.38581 0.002,-0.304453 4.997278,-0.403422 11.10035,-0.21993 28.884074,0.86841 53.370981,6.932131 70.031212,17.341904 2.58907,1.617715 2.83591,1.617715 5.42495,0 16.65536,-10.406717 41.95103,-16.658333 69.78464,-17.246693 l 11.83626,-0.250201 v 68.09955 68.09954 l -16.76803,0.47808 c -25.86681,0.7375 -39.91533,3.52317 -56.31983,11.16764 -5.27398,2.45766 -6.49153,3.47107 -6.9686,5.80014 -0.51783,2.52803 -0.9696,2.82217 -4.33469,2.82217 -3.36487,0 -3.78916,-0.27617 -4.06871,-2.64848 z m 0.18108,-69.99906 V 97.113717 L 98.098041,95.296382 C 94.479345,92.871909 85.79224,88.874869 79.110699,86.560091 74.059986,84.810292 69.698855,83.673677 59.876772,81.547252 54.617779,80.408709 42.536457,79.263176 35.217892,79.209134 l -5.918132,-0.0437 v 59.711436 59.71143 l 13.808974,0.62523 c 13.244262,0.59967 22.09252,1.64858 30.577011,3.62473 8.587544,2.00015 11.109516,2.79873 17.754394,5.62187 3.797476,1.61338 7.459314,2.97761 8.137428,3.03164 0.973653,0.0775 1.232953,-11.93909 1.232953,-57.13993 z m 16.8831,54.24551 c 2.92043,-1.11623 6.19761,-2.38356 7.28259,-2.81627 3.04921,-1.21608 17.93844,-4.46018 25.91014,-5.64535 3.94316,-0.58624 12.22854,-1.06589 18.41196,-1.06589 6.60568,0 11.37818,-0.39657 11.57137,-0.96151 0.18084,-0.52884 0.21112,-27.61568 0.0672,-60.19298 l -0.26141,-59.231461 -4.17713,0.02016 c -4.90081,0.02364 -24.90563,2.422559 -31.3019,3.753629 -12.36935,2.574055 -26.54316,8.174301 -33.15931,13.101639 l -3.33583,2.484357 v 56.291616 c 0,64.07487 -0.99367,58.07886 8.99225,54.26206 z"
       id="path4597"
       inkscape:connector-curvature="0" />
  </g>
</svg>
